<svg width="28" height="28" viewBox="0 0 28 28" fill="none" xmlns="http://www.w3.org/2000/svg">
<path d="M25.375 17.5H21.875V11.0841C22.7161 12.1217 23.8077 12.928 25.0469 13.4269C25.2611 13.5094 25.4991 13.5045 25.7097 13.4131C25.9203 13.3218 26.0865 13.1513 26.1726 12.9386C26.2587 12.7258 26.2577 12.4877 26.1699 12.2756C26.0821 12.0635 25.9144 11.8945 25.7031 11.8048C24.5699 11.3499 23.5993 10.5654 22.9168 9.55283C22.2343 8.54023 21.8714 7.34612 21.875 6.125C21.875 5.89294 21.7828 5.67038 21.6187 5.50628C21.4546 5.34219 21.2321 5.25 21 5.25C20.7679 5.25 20.5454 5.34219 20.3813 5.50628C20.2172 5.67038 20.125 5.89294 20.125 6.125C20.125 7.74945 19.4797 9.30737 18.331 10.456C17.1824 11.6047 15.6245 12.25 14 12.25C12.3755 12.25 10.8176 11.6047 9.66897 10.456C8.52031 9.30737 7.875 7.74945 7.875 6.125C7.875 5.89294 7.78281 5.67038 7.61872 5.50628C7.45462 5.34219 7.23206 5.25 7 5.25C6.76794 5.25 6.54538 5.34219 6.38128 5.50628C6.21719 5.67038 6.125 5.89294 6.125 6.125C6.12861 7.34612 5.7657 8.54023 5.08323 9.55283C4.40075 10.5654 3.4301 11.3499 2.29688 11.8048C2.08556 11.8945 1.91792 12.0635 1.83009 12.2756C1.74227 12.4877 1.7413 12.7258 1.82739 12.9386C1.91348 13.1513 2.07973 13.3218 2.29031 13.4131C2.50089 13.5045 2.73894 13.5094 2.95312 13.4269C4.19225 12.928 5.28387 12.1217 6.125 11.0841V17.5H2.625C2.39294 17.5 2.17038 17.5922 2.00628 17.7563C1.84219 17.9204 1.75 18.1429 1.75 18.375C1.75 18.6071 1.84219 18.8296 2.00628 18.9937C2.17038 19.1578 2.39294 19.25 2.625 19.25H6.125V21.875C6.125 22.1071 6.21719 22.3296 6.38128 22.4937C6.54538 22.6578 6.76794 22.75 7 22.75C7.23206 22.75 7.45462 22.6578 7.61872 22.4937C7.78281 22.3296 7.875 22.1071 7.875 21.875V19.25H20.125V21.875C20.125 22.1071 20.2172 22.3296 20.3813 22.4937C20.5454 22.6578 20.7679 22.75 21 22.75C21.2321 22.75 21.4546 22.6578 21.6187 22.4937C21.7828 22.3296 21.875 22.1071 21.875 21.875V19.25H25.375C25.6071 19.25 25.8296 19.1578 25.9937 18.9937C26.1578 18.8296 26.25 18.6071 26.25 18.375C26.25 18.1429 26.1578 17.9204 25.9937 17.7563C25.8296 17.5922 25.6071 17.5 25.375 17.5ZM15.75 13.8031V17.5H12.25V13.8031C13.4019 14.0657 14.5981 14.0657 15.75 13.8031ZM7.875 11.0687C8.58899 11.9512 9.48418 12.6699 10.5 13.1764V17.5H7.875V11.0687ZM17.5 17.5V13.1775C18.5158 12.671 19.411 11.9522 20.125 11.0698V17.5H17.5Z" fill="black"/>
</svg>
