<svg width="855" height="750" viewBox="0 0 855 750" fill="none" xmlns="http://www.w3.org/2000/svg">
<path d="M789.358 4.7334L784.878 16.6758L784.299 18.2197L785.705 19.083L800.196 27.9756L808.956 42.4453L807.022 52.2168L791.913 54.7344L791.49 54.8047L791.133 55.043L785.673 58.6797L773.928 65.9844L772.983 66.5713V79.2168L770.753 85.2852L770.516 85.9326L770.727 86.5879L773.08 93.9053L773.687 95.791L775.577 95.2021L785.254 92.1934L786.273 96.9512L784.795 103.849L784.542 105.031L785.471 105.805L790.242 109.778V121.894L785.151 128.678L784.668 129.322L784.766 130.121L786.2 141.83L763.521 160.341L762.785 160.941V186.229L758.201 198.7L757.797 199.802L758.561 200.692L765.435 208.707L756.878 222.009L747.528 233.819L746.929 234.576L747.148 235.517L749.502 245.577L749.917 247.351L751.721 247.104L764.106 245.404L775.962 256.635L776.54 257.183H794.949V272.964L796.159 273.484L810.83 279.786L821.78 288.298L823.219 296.68L823.448 298.017L824.775 298.298L832.937 300.027L842.018 307.358V320.024L842.589 320.607L848.293 326.426V338.088L848.611 338.582L852.871 345.204L851.64 350.945L840.518 358.728L840.095 359.022L839.868 359.485L836.887 365.567L819.887 381.784L819.268 382.376V395.25L819.284 395.377L821.529 412.833L812.64 424.063L812.207 424.609V433.581L797.153 447.623L796.676 448.068L796.553 448.711L795.072 456.479L789.083 464.336L788.048 465.693L789.226 466.929L796.821 474.898L800.44 483.336V489.421L789.84 500.134H778.629L778.034 501.013L766.268 518.391L765.924 518.898V534.393L760.832 541.178L760.656 541.412L760.555 541.688L758.201 548.091L757.964 548.737L758.175 549.393L760.528 556.71L760.544 556.761L760.563 556.81L763.692 565.019V565.02L766.007 571.315L767.55 577.61L767.923 579.134H770.63V584.117L767.601 592.948L767.331 593.733L767.696 594.478L770.834 600.88L770.946 601.108L771.112 601.302L776.121 607.142V621.211L771.112 627.052L766.452 632.483L761.019 637.915L760.632 638.301L760.495 638.831L758.142 647.978L758.132 648.017L758.123 648.057L756.784 654.296L742.914 659.403L742.566 659.531L742.288 659.775L717.185 681.727L716.74 682.114L716.578 682.682L714.371 690.4L705.341 699.176L704.734 699.765V708.562L701.674 719.268L701.597 719.537V730.29L697.911 737.165L697.506 737.921L697.774 738.736L700.831 748H-2V2.00684L789.358 4.7334Z" fill="#FF6E28" stroke="white" stroke-width="4"/>
</svg>
